
<svg className="w-6 h-6" fill="currentColor" viewBox="0 0 24 24">
    <path d="M1.175 13.5c-.64 0-1.175.535-1.175 1.175 0 .64.535 1.175 1.175 1.175h.825v-2.35h-.825zm2.825-2.35c-.64 0-1.175.535-1.175 1.175v4.7c0 .64.535 1.175 1.175 1.175.64 0 1.175-.535 1.175-1.175v-4.7c0-.64-.535-1.175-1.175-1.175zm2.825 0c-.64 0-1.175.535-1.175 1.175v4.7c0 .64.535 1.175 1.175 1.175.64 0 1.175-.535 1.175-1.175v-4.7c0-.64-.535-1.175-1.175-1.175zm2.825 0c-.64 0-1.175.535-1.175 1.175v4.7c0 .64.535 1.175 1.175 1.175.64 0 1.175-.535 1.175-1.175v-4.7c0-.64-.535-1.175-1.175-1.175zm2.825 0c-.64 0-1.175.535-1.175 1.175v4.7c0 .64.535 1.175 1.175 1.175.64 0 1.175-.535 1.175-1.175v-4.7c0-.64-.535-1.175-1.175-1.175zm2.825 0c-.64 0-1.175.535-1.175 1.175v4.7c0 .64.535 1.175 1.175 1.175.64 0 1.175-.535 1.175-1.175v-4.7c0-.64-.535-1.175-1.175-1.175zm2.825 0c-.64 0-1.175.535-1.175 1.175v4.7c0 .64.535 1.175 1.175 1.175.64 0 1.175-.535 1.175-1.175v-4.7c0-.64-.535-1.175-1.175-1.175zm2.825 0c-.64 0-1.175.535-1.175 1.175v4.7c0 .64.535 1.175 1.175 1.175.64 0 1.175-.535 1.175-1.175v-4.7c0-.64-.535-1.175-1.175-1.175zm2.825 0c-.64 0-1.175.535-1.175 1.175v4.7c0 .64.535 1.175 1.175 1.175.64 0 1.175-.535 1.175-1.175v-4.7c0-.64-.535-1.175-1.175-1.175zm2.825 0c-.64 0-1.175.535-1.175 1.175v4.7c0 .64.535 1.175 1.175 1.175.64 0 1.175-.535 1.175-1.175v-4.7c0-.64-.535-1.175-1.175-1.175zm2.825 0c-.64 0-1.175.535-1.175 1.175v4.7c0 .64.535 1.175 1.175 1.175.64 0 1.175-.535 1.175-1.175v-4.7c0-.64-.535-1.175-1.175-1.175zm2.825 0c-.64 0-1.175.535-1.175 1.175v4.7c0 .64.535 1.175 1.175 1.175.64 0 1.175-.535 1.175-1.175v-4.7c0-.64-.535-1.175-1.175-1.175zm2.825 0c-.64 0-1.175.535-1.175 1.175v4.7c0 .64.535 1.175 1.175 1.175.64 0 1.175-.535 1.175-1.175v-4.7c0-.64-.535-1.175-1.175-1.175zm2.825 0c-.64 0-1.175.535-1.175 1.175v4.7c0 .64.535 1.175 1.175 1.175.64 0 1.175-.535 1.175-1.175v-4.7c0-.64-.535-1.175-1.175-1.175zm2.825 0c-.64 0-1.175.535-1.175 1.175v4.7c0 .64.535 1.175 1.175 1.175.64 0 1.175-.535 1.175-1.175v-4.7c0-.64-.535-1.175-1.175-1.175zm2.825 0c-.64 0-1.175.535-1.175 1.175v4.7c0 .64.535 1.175 1.175 1.175.64 0 1.175-.535 1.175-1.175v-4.7c0-.64-.535-1.175-1.175-1.175zm2.825 0c-.64 0-1.175.535-1.175 1.175v4.7c0 .64.535 1.175 1.175 1.175.64 0 1.175-.535 1.175-1.175v-4.7c0-.64-.535-1.175-1.175-1.175zm2.825 0c-.64 0-1.175.535-1.175 1.175v4.7c0 .64.535 1.175 1.175 1.175.64 0 1.175-.535 1.175-1.175v-4.7c0-.64-.535-1.175-1.175-1.175zm2.825 0c-.64 0-1.175.535-1.175 1.175v4.7c0 .64.535 1.175 1.175 1.175.64 0 1.175-.535 1.175-1.175v-4.7c0-.64-.535-1.175-1.175-1.175zm2.825 0c-.64 0-1.175.535-1.175 1.175v4.7c0 .64.535 1.175 1.175 1.175.64 0 1.175-.535 1.175-1.175v-4.7c0-.64-.535-1.175-1.175-1.175zm2.825 0c-.64 0-1.175.535-1.175 1.175v4.7c0 .64.535 1.175 1.175 1.175.64 0 1.175-.535 1.175-1.175v-4.7c0-.64-.535-1.175-1.175-1.175zm2.825 0c-.64 0-1.175.535-1.175 1.175v4.7c0 .64.535 1.175 1.175 1.175.64 0 1.175-.535 1.175-1.175v-4.7c0-.64-.535-1.175-1.175-1.175zm2.825 0c-.64 0-1.175.535-1.175 1.175v4.7c0 .64.535 1.175 1.175 1.175.64 0 1.175-.535 1.175-1.175v-4.7c0-.64-.535-1.175-1.175-1.175zm2.825 0c-.64 0-1.175.535-1.175 1.175v4.7c0 .64.535 1.175 1.175 1.175.64 0 1.175-.535 1.175-1.175v-4.7c0-.64-.535-1.175-1.175-1.175zm2.825 0c-.64 0-1.175.535-1.175 1.175v4.7c0 .64.535 1.175 1.175 1.175.64 0 1.175-.535 1.175-1.175v-4.7c0-.64-.535-1.175-1.175-1.175zm2.825 0c-.64 0-1.175.535-1.175 1.175v4.7c0 .64.535 1.175 1.175 1.175.64 0 1.175-.535 1.175-1.175v-4.7c0-.64-.535-1.175-1.175-1.175zm2.825 0c-.64 0-1.175.535-1.175 1.175v4.7c0 .64.535 1.175 1.175 1.175.64 0 1.175-.535 1.175-1.175v-4.7c0-.64-.535-1.175-1.175-1.175zm2.825 0c-.64 0-1.175.535-1.175 1.175v4.7c0 .64.535 1.175 1.175 1.175.64 0 1.175-.535 1.175-1.175v-4.7c0-.64-.535-1.175-1.175-1.175zm2.825 0c-.64 0-1.175.535-1.175 1.175v4.7c0 .64.535 1.175 1.175 1.175.64 0 1.175-.535 1.175-1.175v-4.7c0-.64-.535-1.175-1.175-1.175zm2.825 0c-.64 0-1.175.535-1.175 1.175v4.7c0 .64.535 1.175 1.175 1.175.64 0 1.175-.535 1.175-1.175v-4.7c0-.64-.535-1.175-1.175-1.175zm2.825 0c-.64 0-1.175.535-1.175 1.175v4.7c0 .64.535 1.175 1.175 1.175.64 0 1.175-.535 1.175-1.175v-4.7c0-.64-.535-1.175-1.175-1.175zm2.825 0c-.64 0-1.175.535-1.175 1.175v4.7c0 .64.535 1.175 1.175 1.175.64 0 1.175-.535 1.175-1.175v-4.7c0-.64-.535-1.175-1.175-1.175zm2.825 0c-.64 0-1.175.535-1.175 1.175v4.7c0 .64.535 1.175 1.175 1.175.64 0 1.175-.535 1.175-1.175v-4.7c0-.64-.535-1.175-1.175-1.175zm2.825 0c-.64 0-1.175.535-1.175 1.175v4.7c0 .64.535 1.175 1.175 1.175.64 0 1.175-.535 1.175-1.175v-4.7c0-.64-.535-1.175-1.175-1.175zm2.825 0c-.64 0-1.175.535-1.175 1.175v4.7c0 .64.535 1.175 1.175 1.175.64 0 1.175-.535 1.175-1.175v-4.7c0-.64-.535-1.175-1.175-1.175zm2.825 0c-.64 0-1.175.535-1.175 1.175v4.7c0 .64.535 1.175 1.175 1.175.64 0 1.175-.535 1.175-1.175v-4.7c0-.64-.535-1.175-1.175-1.175zm2.825 0c-.64 0-1.175.535-1.175 1.175v4.7c0 .64.535 1.175 1.175 1.175.64 0 1.175-.535 1.175-1.175v-4.7c0-.64-.535-1.175-1.175-1.175zm2.825 0c-.64 0-1.175.535-1.175 1.175v4.7c0 .64.535 1.175 1.175 1.175.64 0 1.175-.535 1.175-1.175v-4.7c0-.64-.535-1.175-1.175-1.175zm2.825 0c-.64 0-1.175.535-1.175 1.175v4.7c0 .64.535 1.175 1.175 1.175.64 0 1.175-.535 1.175-1.175v-4.7c0-.64-.535-1.175-1.175-1.175zm2.825 0c-.64 0-1.175.535-1.175 1.175v4.7c0 .64.535 1.175 1.175 1.175.64 0 1.175-.535 1.175-1.175v-4.7c0-.64-.535-1.175-1.175-1.175zm2.825 0c-.64 0-1.175.535-1.175 1.175v4.7c0 .64.535 1.175 1.175 1.175.64 0 1.175-.535 1.175-1.175v-4.7c0-.64-.535-1.175-1.175-1.175zm2.825 0c-.64 0-1.175.535-1.175 1.175v4.7c0 .64.535 1.175 1.175 1.175.64 0 1.175-.535 1.175-1.175v-4.7c0-.64-.535-1.175-1.175-1.175zm2.825 0c-.64 0-1.175.535-1.175 1.175v4.7c0 .64.535 1.175 1.175 1.175.64 0 1.175-.535 1.175-1.175v-4.7c0-.64-.535-1.175-1.175-1.175zm2.825 0c-.64 0-1.175.535-1.175 1.175v4.7c0 .64.535 1.175 1.175 1.175.64 0 1.175-.535 1.175-1.175v-4.7c0-.64-.535-1.175-1.175-1.175zm2.825 0c-.64 0-1.175.535-1.175 1.175v4.7c0 .64.535 1.175 1.175 1.175.64 0 1.175-.535 1.175-1.175v-4.7c0-.64-.535-1.175-1.175-1.175zm2.825 0c-.64 0-1.175.535-1.175 1.175v4.7c0 .64.535 1.175 1.175 1.175.64 0 1.175-.535 1.175-1.175v-4.7c0-.64-.535-1.175-1.175-1.175zm2.825 0c-.64 0-1.175.535-1.175 1.175v4.7c0 .64.535 1.175 1.175 1.175.64 0 1.175-.535 1.175-1.175v-4.7c0-.64-.535-1.175-1.175-1.175zm2.825 0c-.64 0-1.175.535-1.175 1.175v4.7c0 .64.535 1.175 1.175 1.175.64 0 1.175-.535 1.175-1.175v-4.7c0-.64-.535-1.175-1.175-1.175zm2.825 0c-.64 0-1.175.535-1.175 1.175v4.7c0 .64.535 1.175 1.175 1.175.64 0 1.175-.535 1.175-1.175v-4.7c0-.64-.535-1.175-1.175-1.175zm2.825 0c-.64 0-1.175.535-1.175 1.175v4.7c0 .64.535 1.175 1.175 1.175.64 0 1.175-.535 1.175-1.175v-4.7c0-.64-.535-1.175-1.175-1.175zm2.825 0c-.64 0-1.175.535-1.175 1.175v4.7c0 .64.535 1.175 1.175 1.175.64 0 1.175-.535 1.175-1.175v-4.7c0-.64-.535-1.175-1.175-1.175zm2.825 0c-.64 0-1.175.535-1.175 1.175v4.7c0 .64.535 1.175 1.175 1.175.64 0 1.175-.535 1.175-1.175v-4.7c0-.64-.535-1.175-1.175-1.175zm2.825 0c-.64 0-1.175.535-1.175 1.175v4.7c0 .64.535 1.175 1.175 1.175.64 0 1.175-.535 1.175-1.175v-4.7c0-.64-.535-1.175-1.175-1.175zm2.825 0c-.64 0-1.175.535-1.175 1.175v4.7c0 .64.535 1.175 1.175 1.175.64 0 1.175-.535 1.175-1.175v-4.7c0-.64-.535-1.175-1.175-1.175zm2.825 0c-.64 0-1.175.535-1.175 1.175v4.7c0 .64.535 1.175 1.175 1.175.64 0 1.175-.535 1.175-1.175v-4.7c0-.64-.535-1.175-1.175-1.175zm2.825 0c-.64 0-1.175.535-1.175 1.175v4.7c0 .64.535 1.175 1.175 1.175.64 0 1.175-.535 1.175-1.175v-4.7c0-.64-.535-1.175-1.175-1.175zm2.825 0c-.64 0-1.175.535-1.175 1.175v4.7c0 .64.535 1.175 1.175 1.175.64 0 1.175-.535 1.175-1.175v-4.7c0-.64-.535-1.175-1.175-1.175zm2.825 0c-.64 0-1.175.535-1.175 1.175v4.7c0 .64.535 1.175 1.175 1.175.64 0 1.175-.535 1.175-1.175v-4.7c0-.64-.535-1.175-1.175-1.175zm2.825 0c-.64 0-1.175.535-1.175 1.175v4.7c0 .64.535 1.175 1.175 1.175.64 0 1.175-.535 1.175-1.175v-4.7c0-.64-.535-1.175-1.175-1.175zm2.825 0c-.64 0-1.175.535-1.175 1.175v4.7c0 .64.535 1.175 1.175 1.175.64 0 1.175-.535 1.175-1.175v-4.7c0-.64-.535-1.175-1.175-1.175zm2.825 0c-.64 0-1.175.535-1.175 1.175v4.7c0 .64.535 1.175 1.175 1.175.64 0 1.175-.535 1.175-1.175v-4.7c0-.64-.535-1.175-1.175-1.175zm2.825 0c-.64 0-1.175.535-1.175 1.175v4.7c0 .64.535 1.175 1.175 1.175.64 0 1.175-.535 1.175-1.175v-4.7c0-.64-.535-1.175-1.175-1.175zm2.825 0c-.64 0-1.175.535-1.175 1.175v4.7c0 .64.535 1.175 1.175 1.175.64 0 1.175-.535 1.175-1.175v-4.7c0-.64-.535-1.175-1.175-1.175zm2.825 0c-.64 0-1.175.535-1.175 1.175v4.7c0 .64.535 1.175 1.175 1.175.64 0 1.175-.535 1.175-1.175v-4.7c0-.64-.535-1.175-1.175-1.175zm2.825 0c-.64 0-1.175.535-1.175 1.175v4.7c0 .64.535 1.175 1.175 1.175.64 0 1.175-.535 1.175-1.175v-4.7c0-.64-.535-1.175-1.175-1.175zm2.825 0c-.64 0-1.175.535-1.175 1.175v4.7c0 .64.535 1.175 1.175 1.175.64 0 1.175-.535 1.175-1.175v-4.7c0-.64-.535-1.175-1.175-1.175zm2.825 0c-.64 0-1.175.535-1.175 1.175v4.7c0 .64.535 1.175 1.175 1.175.64 0 1.175-.535 1.175-1.175v-4.7c0-.64-.535-1.175-1.175-1.175zm2.825 0c-.64 0-1.175.535-1.175 1.175v4.7c0 .64.535 1.175 1.175 1.175.64 0 1.175-.535 1.175-1.175v-4.7c0-.64-.535-1.175-1.175-1.175zm2.825 0c-.64 0-1.175.535-1.175 1.175v4.7c0 .64.535 1.175 1.175 1.175.64 0 1.175-.535 1.175-1.175v-4.7c0-.64-.535-1.175-1.175-1.175z" />
  </svg>